<svg width="250" height="285" viewBox="0 0 250 285" fill="none" xmlns="http://www.w3.org/2000/svg">
<path d="M186.276 13.2197C190.221 14.7321 192.93 17.26 194.831 21.0622C195.325 25.6434 194.492 29.3356 192.737 33.5389C192.514 34.0882 192.291 34.6375 192.061 35.2034C188.016 44.9203 183.13 53.6851 176.295 61.7006C175.976 62.0825 175.657 62.4645 175.329 62.8581C162.642 77.9436 144.056 89.4838 124.249 91.6446C123.109 92.7844 123.419 94.0006 123.39 95.58C123.375 96.2651 123.361 96.9501 123.347 97.656C123.335 98.4009 123.323 99.1458 123.31 99.9132C123.288 101.051 123.288 101.051 123.266 102.212C123.219 104.646 123.177 107.079 123.135 109.513C123.104 111.158 123.073 112.804 123.042 114.449C122.965 118.493 122.893 122.536 122.823 126.579C123.42 126.573 124.018 126.567 124.633 126.56C130.296 126.503 135.959 126.459 141.622 126.432C144.533 126.417 147.443 126.397 150.354 126.364C153.169 126.333 155.984 126.316 158.799 126.309C159.867 126.304 160.934 126.293 162.002 126.278C173.386 126.119 182.98 129.051 191.556 136.778C197.715 143.329 200.325 151.464 200.802 160.311C200.482 168.636 196.613 176.442 192.96 183.749C192.514 184.657 192.068 185.564 191.623 186.472C188.566 192.68 185.397 198.827 182.124 204.923C180.862 207.282 179.682 209.671 178.524 212.082C174 221.48 174 221.48 169.878 223.541C166.345 223.929 163.553 223.943 160.342 222.338C156.881 219.288 155.043 216.99 154.722 212.306C154.771 209.224 155.677 207.118 157.134 204.38C157.381 203.908 157.628 203.436 157.882 202.95C158.777 201.25 159.692 199.562 160.61 197.875C162.259 194.83 163.907 191.785 165.556 188.74C165.986 187.948 166.416 187.156 166.859 186.34C175.719 171.236 175.719 171.236 177.721 154.385C176.346 151.813 174.628 149.987 172.017 148.681C170.176 148.605 168.354 148.571 166.513 148.568C165.945 148.565 165.377 148.561 164.792 148.557C163.555 148.55 162.318 148.544 161.081 148.539C159.121 148.53 157.161 148.517 155.201 148.501C149.626 148.457 144.051 148.419 138.476 148.395C135.067 148.38 131.659 148.355 128.25 148.323C126.954 148.313 125.657 148.307 124.36 148.304C122.539 148.301 120.719 148.284 118.899 148.265C118.368 148.267 117.838 148.269 117.291 148.271C113.039 148.205 108.873 147.461 105.67 144.448C105.346 143.962 105.022 143.477 104.687 142.977C104.35 142.492 104.013 142.007 103.665 141.507C102.257 139.09 102.06 137.143 102.066 134.406C102.067 133.678 102.067 132.95 102.067 132.201C102.07 131.416 102.074 130.632 102.078 129.824C102.079 129.02 102.08 128.216 102.081 127.387C102.085 124.816 102.094 122.244 102.103 119.673C102.106 117.931 102.11 116.189 102.113 114.447C102.12 110.173 102.132 105.9 102.147 101.626C97.3692 108.176 93.8523 113.008 93.9011 121.266C93.8967 121.902 93.8923 122.538 93.8877 123.194C93.8827 124.533 93.8849 125.873 93.894 127.213C93.9038 129.238 93.8796 131.261 93.8524 133.286C93.8081 143.723 95.6426 152.054 103.195 159.726C107.615 163.699 111.961 164.755 117.699 164.678C118.549 164.669 118.549 164.669 119.415 164.66C126.564 164.455 130.823 162.1 136.238 157.582C138.651 155.941 140.62 155.863 143.499 155.81C144.925 160.088 144.925 160.088 145.42 161.625C146.268 164.231 147.145 166.741 148.311 169.223C149.202 171.495 149.202 171.495 149.18 172.888C148.109 175.151 146.156 176.01 144.033 177.154C143.587 177.401 143.141 177.648 142.681 177.903C138.357 180.236 133.908 182.08 129.24 183.616C128.458 183.879 128.458 183.879 127.661 184.148C124.06 185.15 120.432 185.183 116.718 185.22C116.213 185.227 115.708 185.233 115.187 185.24C105.51 185.181 96.1303 180.641 89.0163 174.216C75.8691 160.436 73.1588 143.108 73.4037 124.758C73.9217 107.856 78.4897 92.3409 90.7402 80.2374C99.1717 72.5921 109.587 71.0818 120.402 69.2242C132.48 67.1419 144.429 63.9257 153.243 54.7604C154.193 53.8581 154.193 53.8581 155.262 53.1451C155.778 52.8015 155.619 52.7886 156.332 52.4322C157.045 51.3627 158.04 49.8194 159.317 48.4664C165.265 41.7221 168.54 34.2779 171.936 26.0445C177.585 12.5074 177.585 12.5074 186.276 13.2197Z" fill="white"/>
<path d="M240.366 115.142C246.833 119.957 247.652 129.339 248.845 136.78C249.788 143.396 249.997 149.943 249.996 156.613C249.997 157.099 249.999 157.585 250 158.086C249.997 169.091 248.402 179.457 245.451 190.032C245.327 190.489 245.203 190.945 245.076 191.415C236.147 223.92 214.403 250.095 185.524 266.892C173.716 273.573 161.124 278.227 147.853 280.978C146.861 281.184 145.87 281.397 144.881 281.617C135.475 283.695 122.591 286.111 113.619 281.664C111.13 279.85 109.161 277.546 107.071 275.297C104.224 272.756 101.13 271.32 97.6994 269.711C94.0569 268.002 90.8997 266.169 87.8882 263.467C87.4416 263.069 86.9949 262.671 86.5347 262.261C80.3525 256.408 75.3285 249.238 70.7774 242.078C71.1303 241.372 71.1303 241.372 71.4903 240.652C71.9223 241.109 72.3542 241.566 72.7992 242.036C78.5847 248.009 84.5719 252.235 91.854 256.159C92.3504 256.428 92.8467 256.697 93.3581 256.974C113.699 267.639 137.568 264.288 158.613 257.721C172.057 253.332 184.914 246.481 195.544 237.087C196.23 236.495 196.915 235.904 197.622 235.294C214.118 220.81 223.949 201.173 229.053 180.051C229.233 179.327 229.233 179.327 229.416 178.589C233.149 162.901 232.168 145.841 228.407 130.303C226.534 122.2 226.534 122.2 228.32 118.872C231.362 115 235.54 112.668 240.366 115.142Z" fill="white"/>
<path d="M110.703 3.95128C117.265 8.05109 123.017 13.9223 125.784 21.2265C128.078 31.4287 127.083 42.128 121.887 51.229C117.291 57.9358 110.777 62.5031 102.86 64.5523C100.407 64.7862 97.9715 64.8162 95.5081 64.8197C94.5465 64.8459 94.5465 64.8459 93.5655 64.8726C84.9043 64.9102 78.9197 60.4495 72.7827 54.7492C69.8352 51.7093 68.0787 48.495 66.4998 44.5896C66.2718 44.041 66.0439 43.4923 65.8091 42.927C62.8465 34.6565 63.6295 25.431 67.2127 17.4974C71.562 9.93765 78.2598 3.85341 86.6073 1.04377C94.9051 -0.970918 103.177 -0.10438 110.703 3.95128Z" fill="white"/>
<path d="M47.9629 64.5524C48.3158 65.2582 48.3158 65.2582 48.6759 65.9783C48.322 66.2641 47.9682 66.55 47.6036 66.8445C32.9526 79.1046 27.4407 98.0051 23.0095 115.885C22.8662 116.453 22.7228 117.021 22.5751 117.605C21.7063 121.058 20.8474 124.512 20.1577 128.005C20.0297 128.652 19.9018 129.298 19.7699 129.964C18.6724 136.177 18.5124 142.251 18.5459 148.538C18.5535 150.226 18.546 151.913 18.5369 153.601C18.526 163.841 19.0316 174.175 22.0738 184.017C22.2595 184.638 22.4453 185.259 22.6367 185.9C28.6441 205.44 39.62 222.742 53.8865 237.346C57.5208 241.112 57.5208 241.112 57.6769 244.306C57.2153 247.168 56.7503 248.97 55.0924 251.346C52.4157 253.214 49.8714 253.982 46.576 253.808C36.3779 251.559 26.3974 234.897 20.9791 226.539C12.8327 213.672 6.59754 199.857 3.04683 185.042C2.7797 184.106 2.51238 183.17 2.24476 182.234C0.295335 174.072 -0.0402109 165.654 0.00911759 157.301C0.0167871 155.764 0.009118 154.227 6.64164e-05 152.69C-0.0304631 124.782 10.4649 99.0042 29.7826 78.856C35.3689 73.5522 41.6845 68.9936 47.9629 64.5524Z" fill="white"/>
<path d="M49.567 159.108C50.2324 159.073 50.8978 159.038 51.5834 159.002C54.4076 159.508 56.1535 160.77 57.9442 162.94C58.8881 164.777 59.4624 166.664 60.0385 168.644C65.2006 184.585 75.0958 197.325 89.938 205.183C102.188 210.982 116.515 210.957 129.24 206.43C131.751 205.391 134.207 204.252 136.623 203.007C137.71 202.45 138.82 201.94 139.934 201.44C140.404 201.675 140.875 201.91 141.36 202.152C141.04 204.106 140.713 206.059 140.374 208.009C140.055 209.967 139.78 211.907 139.538 213.874C139.388 214.958 139.238 216.041 139.087 217.124C139.033 217.645 138.978 218.165 138.922 218.701C138.494 221.589 137.99 222.676 135.667 224.488C120.458 231.605 102.628 230.732 87.0667 225.66C72.3946 220.126 61.2638 209.679 52.2406 197.162C51.7802 196.535 51.3197 195.908 50.8453 195.262C44.8803 186.564 39.5138 175.109 40.8333 164.366C42.7942 160.466 45.3768 159.257 49.567 159.108Z" fill="white"/>
<path d="M199.109 70.256C205.61 73.654 210.852 79.8079 215.939 84.9746C217.51 86.5199 219.125 87.9526 220.81 89.372C223.314 91.5527 225.234 93.2595 225.683 96.7049C225.879 101.218 224.877 104.145 221.879 107.597C218.761 109.322 216.135 109.578 212.655 108.755C209.87 106.831 207.7 104.441 205.436 101.938C204.233 100.658 203.028 99.3797 201.822 98.1029C201.247 97.4869 200.672 96.8709 200.08 96.2361C198.12 94.2111 196.057 92.3661 193.897 90.5577C190.094 87.2364 188.595 84.611 188.192 79.6135C188.238 76.5102 189.225 74.7675 191.267 72.3948C193.88 70.3314 195.803 69.7837 199.109 70.256Z" fill="white"/>
</svg>
